<svg width="140" height="113" viewBox="0 0 140 113" fill="none" xmlns="http://www.w3.org/2000/svg">
<g clip-path="url(#clip0_1_13)">
<path d="M8.32671 39.8312L2.94007 33.1433H0V49.0987H3.50709V39.3004L7.77019 44.4172H8.80972L13.1463 39.2792V49.0987H16.6429V33.1433H13.7028L8.32671 39.8312Z" fill="white"/>
<path d="M29.0857 36.9862C30.6188 38.4724 32.4353 39.6295 34.5354 40.4681C36.6354 41.3068 38.914 41.7208 41.392 41.7208C43.8701 41.7208 46.2117 41.3068 48.3222 40.4681C50.4328 39.6295 52.2703 38.4724 53.8243 36.9862C55.3784 35.5 56.5859 33.7272 57.4679 31.6571C58.3395 29.587 58.7805 27.3047 58.7805 24.7993C58.7805 22.294 58.3395 19.9798 57.4679 17.8673C56.5964 15.7441 55.3784 13.9289 53.8243 12.4108C52.2703 10.8928 50.4433 9.70381 48.3222 8.83332C46.2117 7.96283 43.9016 7.52759 41.392 7.52759C38.8825 7.52759 36.6249 7.96283 34.5354 8.83332C32.4353 9.70381 30.6188 10.8928 29.0857 12.4108C27.5527 13.9289 26.3452 15.7441 25.4736 17.8673C24.6021 19.9904 24.1611 22.294 24.1611 24.7993C24.1611 27.3047 24.6021 29.587 25.4736 31.6571C26.3452 33.7272 27.5527 35.5 29.0857 36.9862ZM30.3773 19.7887C30.9548 18.2919 31.7633 16.9968 32.8028 15.914C33.8423 14.8312 35.0919 13.9819 36.5724 13.3556C38.0425 12.7399 39.649 12.432 41.4025 12.432C43.1561 12.432 44.8676 12.7399 46.3482 13.3556C47.8392 13.9713 49.1097 14.8312 50.1703 15.914C51.2308 16.9968 52.0393 18.2919 52.6168 19.7887C53.1943 21.2962 53.4883 22.931 53.4883 24.6932C53.4883 26.4554 53.1943 28.1539 52.6168 29.6507C52.0393 31.1475 51.2203 32.432 50.1703 33.483C49.1097 34.534 47.8392 35.3514 46.3482 35.9352C44.8676 36.5191 43.2086 36.8163 41.4025 36.8163C39.5965 36.8163 38.0425 36.5297 36.5724 35.9352C35.1024 35.3514 33.8528 34.534 32.8028 33.483C31.7528 32.432 30.9548 31.1582 30.3773 29.6507C29.7997 28.1539 29.5057 26.4979 29.5057 24.6932C29.5057 22.8885 29.7997 21.2855 30.3773 19.7887Z" fill="white"/>
<path d="M99.679 6.39172C97.8099 4.5552 95.5944 3.12208 93.0533 2.07113C90.5123 1.02017 87.7192 0.5 84.6951 0.5C81.671 0.5 78.9515 1.02017 76.4209 2.07113C73.8903 3.12208 71.7063 4.5552 69.8477 6.39172C67.9997 8.21762 66.5402 10.4151 65.4901 12.9735C64.4401 15.5318 63.9046 18.3132 63.9046 21.3386C63.9046 24.3641 64.4296 27.1136 65.4901 29.6083C66.5402 32.103 67.9997 34.2473 69.8477 36.0308C71.6958 37.8248 73.8798 39.2261 76.4209 40.224C78.9515 41.2325 81.7025 41.7314 84.6951 41.7314C87.6877 41.7314 90.5018 41.2325 93.0533 40.224C95.5944 39.2155 97.8099 37.8248 99.679 36.0308C101.548 34.2367 103.008 32.103 104.068 29.6083C105.129 27.1136 105.654 24.3535 105.654 21.3386C105.654 18.3238 105.129 15.5318 104.068 12.9735C103.018 10.4151 101.548 8.22824 99.679 6.39172ZM98.2089 27.1773C97.5054 28.9926 96.5289 30.5318 95.2584 31.7951C93.9773 33.0584 92.4548 34.0456 90.6593 34.7569C88.8742 35.4575 86.8792 35.8079 84.6951 35.8079C82.5111 35.8079 80.642 35.4575 78.878 34.7569C77.1034 34.0563 75.5914 33.069 74.3419 31.7951C73.0923 30.5212 72.1158 28.9926 71.4123 27.1773C70.7088 25.362 70.3623 23.3769 70.3623 21.2006C70.3623 19.0244 70.7088 17.0924 71.4123 15.2877C72.1053 13.4724 73.0818 11.9225 74.3419 10.6168C75.6019 9.31104 77.1034 8.28132 78.878 7.53822C80.642 6.79512 82.5846 6.42357 84.6951 6.42357C86.8057 6.42357 88.8742 6.79512 90.6593 7.53822C92.4548 8.28132 93.9773 9.31104 95.2584 10.6168C96.5289 11.9225 97.5159 13.483 98.2089 15.2877C98.902 17.103 99.2485 19.0775 99.2485 21.2006C99.2485 23.3238 98.902 25.362 98.2089 27.1773Z" fill="white"/>
<path d="M135.527 26.413V48.8227L117.802 33.6847H113.287V47.4321H117.802V40.9565L135.485 55.8291H140V26.413H135.527Z" fill="white"/>
<path d="M64.4296 84.5446H59.4525V112.167H64.4296V84.5446Z" fill="white"/>
<path d="M43.9331 112.167H48.9102L53.5093 90.2558H48.5427L43.9331 112.167Z" fill="white"/>
<path d="M70.3623 90.2558L74.9614 112.167H79.9385L75.3289 90.2558H70.3623Z" fill="white"/>
<path d="M24.2031 81.3493H104.278V44.9161H24.2031V81.3493ZM29.1697 49.948H99.2905V76.3174H29.1697V49.948Z" fill="white"/>
<path d="M0.976524 12.8355C0.976524 13.1858 1.02903 13.483 1.12353 13.7378C1.21803 13.9926 1.35453 14.1943 1.53304 14.3535C1.71154 14.5128 1.92155 14.6401 2.17355 14.7144C2.42556 14.7888 2.70907 14.8312 3.00308 14.8312C3.11858 14.8312 3.22358 14.8312 3.32858 14.81C3.44409 14.7994 3.53859 14.7781 3.63309 14.7569V13.7697C3.57009 13.7909 3.50709 13.8015 3.43359 13.8015C3.36008 13.8015 3.29708 13.8121 3.23408 13.8121C2.89807 13.8121 2.61457 13.7378 2.39406 13.5998C2.17355 13.4618 2.06855 13.1964 2.06855 12.8036V10.224H3.8221V9.27921H2.05805V7.517L0.987025 7.75054V9.27921H0V10.224H0.976524V12.8249V12.8355Z" fill="white"/>
<path d="M5.27113 14.0032C5.52313 14.258 5.82764 14.4597 6.17415 14.6083C6.52066 14.7569 6.89867 14.8312 7.31868 14.8312C7.73869 14.8312 8.1062 14.7569 8.46321 14.6083C8.80972 14.4597 9.10372 14.258 9.35573 14.0032C9.60774 13.7484 9.80724 13.4512 9.95424 13.1115C10.1012 12.7718 10.1748 12.4002 10.1748 12.0074C10.1748 11.6146 10.1012 11.2325 9.95424 10.8928C9.80724 10.5531 9.60774 10.2558 9.35573 10.0011C9.10372 9.74628 8.80972 9.54458 8.46321 9.39596C8.1062 9.24734 7.73869 9.17303 7.31868 9.17303C6.89867 9.17303 6.52066 9.24734 6.17415 9.39596C5.82764 9.54458 5.52313 9.74628 5.27113 10.0011C5.01912 10.2558 4.81962 10.5531 4.68311 10.8928C4.53611 11.2325 4.46261 11.6146 4.46261 12.0074C4.46261 12.4002 4.53611 12.7718 4.68311 13.1115C4.83012 13.4512 5.01912 13.7484 5.27113 14.0032ZM5.70164 11.2962C5.79614 11.0732 5.91164 10.8928 6.06915 10.7335C6.21615 10.5743 6.40516 10.4469 6.61516 10.362C6.82517 10.2665 7.06667 10.224 7.31868 10.224C7.57069 10.224 7.80169 10.2665 8.0222 10.362C8.2322 10.4575 8.42121 10.5849 8.56821 10.7335C8.71521 10.8928 8.84122 11.0732 8.93572 11.2962C9.01972 11.5085 9.06172 11.742 9.06172 12.0074C9.06172 12.2728 9.01972 12.4851 8.93572 12.6975C8.84122 12.9204 8.72571 13.1008 8.56821 13.2601C8.42121 13.4193 8.2322 13.5467 8.0222 13.6316C7.81219 13.7272 7.57069 13.7696 7.31868 13.7696C7.06667 13.7696 6.83567 13.7272 6.61516 13.6316C6.40516 13.5361 6.21615 13.4087 6.06915 13.2601C5.91164 13.1008 5.79614 12.9204 5.70164 12.6975C5.60714 12.4851 5.57564 12.2516 5.57564 12.0074C5.57564 11.7633 5.61764 11.5191 5.70164 11.2962Z" fill="white"/>
<path d="M0.976524 24.4066C0.976524 24.7569 1.02903 25.0541 1.12353 25.3089C1.21803 25.5637 1.35453 25.7654 1.53304 25.9246C1.71154 26.0839 1.92155 26.2112 2.17355 26.2856C2.42556 26.3599 2.70907 26.4023 3.00308 26.4023C3.11858 26.4023 3.22358 26.4023 3.32858 26.3811C3.43359 26.3599 3.53859 26.3492 3.63309 26.328V25.3408C3.57009 25.362 3.50709 25.3726 3.43359 25.3726C3.36008 25.3726 3.29708 25.3832 3.23408 25.3832C2.89807 25.3832 2.61457 25.3089 2.39406 25.1709C2.17355 25.0329 2.06855 24.7675 2.06855 24.3747V21.7951H3.8221V20.8503H2.05805V19.0881L0.987025 19.3216V20.8503H0V21.7951H0.976524V24.396V24.4066Z" fill="white"/>
<path d="M9.96475 26.2856V22.9841C9.96475 22.655 9.92275 22.3578 9.82825 22.0817C9.73375 21.8057 9.58674 21.5722 9.39774 21.3705C9.20873 21.1794 8.97773 21.0202 8.69422 20.9034C8.42121 20.7972 8.10621 20.7336 7.7282 20.7336C7.49719 20.7336 7.27668 20.7654 7.08768 20.8185C6.89868 20.8716 6.74117 20.9459 6.60467 21.0202C6.47866 21.1051 6.36316 21.19 6.27916 21.2856C6.18466 21.3811 6.12166 21.4554 6.07965 21.5297V18.3132H4.97713V26.275H6.07965V23.2176C6.07965 22.9947 6.12166 22.793 6.19516 22.6125C6.26866 22.4321 6.37366 22.2834 6.51017 22.1561C6.64667 22.0287 6.80417 21.9437 6.98268 21.88C7.16118 21.8164 7.36069 21.7845 7.56019 21.7845C7.9697 21.7845 8.29521 21.9119 8.51572 22.1561C8.74672 22.4002 8.85172 22.7505 8.85172 23.207V26.2643H9.95425L9.96475 26.2856Z" fill="white"/>
<path d="M15.8974 21.4873C15.6559 21.2537 15.3619 21.0626 15.0364 20.9353C14.7109 20.7972 14.3329 20.7336 13.9338 20.7336C13.4823 20.7336 13.0938 20.8185 12.7473 20.9777C12.4113 21.1369 12.1278 21.3493 11.8968 21.6147C11.6658 21.88 11.4978 22.1879 11.3823 22.5276C11.2668 22.8673 11.2038 23.2176 11.2038 23.5679C11.2038 23.9183 11.2563 24.2686 11.3823 24.5977C11.4978 24.9374 11.6658 25.2346 11.8863 25.5C12.1068 25.7654 12.3903 25.9777 12.7263 26.1369C13.0623 26.2962 13.4613 26.3811 13.9023 26.3811C14.5534 26.3811 15.1099 26.2219 15.5824 25.8928C16.0549 25.5637 16.3909 25.1285 16.5694 24.5658H15.3829C15.2359 24.8206 15.0574 25.0117 14.8264 25.1391C14.5954 25.2665 14.3329 25.3302 14.0179 25.3302C13.7343 25.3302 13.5033 25.2877 13.2933 25.2028C13.0833 25.1178 12.9048 24.9905 12.7578 24.8312C12.6108 24.672 12.5058 24.4809 12.4323 24.2686C12.3903 24.1518 12.3903 24.0138 12.3798 23.8864H16.6219C16.6324 23.8227 16.6429 23.759 16.6534 23.6847C16.6534 23.621 16.6534 23.5361 16.6534 23.4512C16.6534 23.0478 16.5904 22.6762 16.4539 22.3471C16.3279 22.0181 16.1389 21.7208 15.8974 21.4873ZM12.3903 23.0584C12.4008 22.9841 12.3903 22.9098 12.4218 22.8461C12.4848 22.6231 12.5898 22.4321 12.7263 22.2728C12.8628 22.103 13.0308 21.9756 13.2303 21.88C13.4403 21.7845 13.6713 21.742 13.9338 21.742C14.1229 21.742 14.3014 21.7739 14.4904 21.827C14.6689 21.88 14.8369 21.9756 14.9839 22.0817C15.1309 22.1985 15.2569 22.3365 15.3514 22.4958C15.4459 22.655 15.5089 22.8461 15.5299 23.0584H12.4008H12.3903Z" fill="white"/>
</g>
<defs>
<clipPath id="clip0_1_13">
<rect width="140" height="111.667" fill="white" transform="translate(0 0.5)"/>
</clipPath>
</defs>
</svg>
