<svg width="99" height="75" viewBox="0 0 99 75" fill="none" xmlns="http://www.w3.org/2000/svg">
<g clip-path="url(#clip0_58_38)">
<path d="M63.9151 26.5168V10.9832H48.4062L37.4404 0L26.4746 10.9832H10.9658V26.5168L0 37.5L10.9658 48.4832V64.0168H26.4746L37.4404 75L48.4062 64.0168H63.9151V48.4832L74.8809 37.5L63.9151 26.5168ZM10.9658 46.6085L1.87176 37.5L10.9658 28.3915V46.6085ZM54.2889 18.75H45.1949L38.7642 12.3091H47.8582L54.2889 18.75ZM42.3991 49.4882H32.4844L25.4739 42.4666V32.5361L32.4844 25.5144H42.3991L49.4096 32.5361V42.4666L42.3991 49.4882ZM49.4096 44.3413V49.4882H44.2709L49.4096 44.3413ZM41.0754 50.8141L37.4431 54.4522L33.8108 50.8141H41.0781H41.0754ZM30.6126 49.4882H25.4739V44.3413L30.6126 49.4882ZM25.4739 30.6613V25.5144H30.6126L25.4739 30.6613ZM33.8081 24.1886L37.4404 20.5505L41.0728 24.1886H33.8055H33.8081ZM44.2709 25.5144H49.4096V30.6613L44.2709 25.5144ZM42.9472 24.1886L38.841 20.0758H44.6468L48.7531 24.1886H42.9472ZM37.5172 18.75L37.4404 18.6731L37.3637 18.75H31.5578L37.4404 12.858L43.3231 18.75H37.5172ZM36.0399 20.0758L31.9337 24.1886H26.1278L30.234 20.0758H36.0399ZM24.2587 24.1886H24.1502V24.2973L20.044 28.4101V20.0785H28.3623L24.2561 24.1912L24.2587 24.1886ZM24.1502 26.172V31.9872L20.044 36.0999V30.2848L24.1502 26.172ZM24.1502 33.8619V41.1408L20.5179 37.5027L24.1502 33.8646V33.8619ZM24.1502 43.0155V48.8306L20.044 44.7179V38.9027L24.1502 43.0155ZM24.1502 50.7053V50.8141H24.2587L28.3649 54.9268H20.0466V46.5952L24.1528 50.708L24.1502 50.7053ZM26.1305 50.8141H31.9364L36.0426 54.9268H30.2367L26.1305 50.8141ZM37.3637 56.25L37.4404 56.3269L37.5172 56.25H43.3231L37.4404 62.142L31.5578 56.25H37.3637ZM38.841 54.9242L42.9472 50.8114H48.7531L44.6468 54.9242H38.841ZM50.6248 50.8141H50.7334V50.7053L54.8396 46.5926V54.9242H46.5213L50.6275 50.8114L50.6248 50.8141ZM50.7334 48.8306V43.0155L54.8396 38.9027V44.7179L50.7334 48.8306ZM50.7334 41.1408V33.8619L54.3657 37.5L50.7334 41.1381V41.1408ZM50.7334 31.9872V26.172L54.8396 30.2848V36.0999L50.7334 31.9872ZM50.7334 24.2973V24.1886H50.6248L46.5186 20.0758H54.8369V28.4074L50.7307 24.2947L50.7334 24.2973ZM37.4404 1.87473L46.5345 10.9832H28.3464L37.4404 1.87473ZM27.0227 12.3091H36.1167L29.686 18.75H20.592L27.0227 12.3091ZM12.2895 12.3091H25.1509L18.7202 18.75L12.2895 25.1909V12.3091ZM12.2895 27.0657L18.7202 20.6247V29.7332L12.2895 36.1742V27.0657ZM18.7202 37.5769V43.392L12.8376 37.5L18.7202 31.608V37.4231L18.6434 37.5L18.7202 37.5769ZM12.2895 38.8258L18.7202 45.2668V54.3753L12.2895 47.9343V38.8258ZM12.2895 62.6909V49.8091L18.7202 56.25L25.1509 62.6909H12.2895ZM20.592 56.25H29.686L36.1167 62.6909H27.0227L20.592 56.25ZM37.4404 73.1253L28.3464 64.0168H46.5345L37.4404 73.1253ZM47.8582 62.6909H38.7642L45.1949 56.25H54.2889L47.8582 62.6909ZM62.5914 62.6909H49.73L62.5914 49.8091V62.6909ZM62.5914 47.9343L56.1607 54.3753V45.2668L62.5914 38.8258V47.9343ZM56.1607 37.4231V31.608L62.0433 37.5L56.1607 43.392V37.5769L56.2374 37.5L56.1607 37.4231ZM62.5914 36.1742L56.1607 29.7332V20.6247L62.5914 27.0657V36.1742ZM62.5914 25.1909L49.73 12.3091H62.5914V25.1909ZM63.9151 28.3915L73.0091 37.5L63.9151 46.6085V28.3915Z" fill="white"/>
<path d="M37.4405 32.4618C34.6633 32.4618 32.4103 34.7184 32.4103 37.5C32.4103 40.2816 34.6633 42.5382 37.4405 42.5382C40.2177 42.5382 42.4706 40.2816 42.4706 37.5C42.4706 34.7184 40.2177 32.4618 37.4405 32.4618ZM37.4405 41.2123C35.3966 41.2123 33.734 39.5471 33.734 37.5C33.734 35.4529 35.3966 33.7876 37.4405 33.7876C39.4843 33.7876 41.1469 35.4529 41.1469 37.5C41.1469 39.5471 39.4843 41.2123 37.4405 41.2123Z" fill="white"/>
<path d="M77.1551 55.9132L78.2141 52.1187L79.2492 55.9132H80.2659L81.624 50.9016H80.7L79.7576 54.9401L78.7065 50.9016H77.764L76.6706 54.9321L75.7413 50.9016H74.8174L76.1491 55.9132H77.1551Z" fill="white"/>
<path d="M82.7438 51.7687C82.9 51.7687 83.0298 51.721 83.133 51.6228C83.2363 51.5247 83.2866 51.4054 83.2866 51.2622C83.2866 51.119 83.2363 50.9944 83.133 50.9016C83.0298 50.8088 82.9 50.761 82.7438 50.761C82.5876 50.761 82.45 50.8088 82.352 50.9016C82.2514 50.9944 82.2011 51.1164 82.2011 51.2622C82.2011 51.4081 82.2514 51.5247 82.352 51.6228C82.4526 51.721 82.5824 51.7687 82.7438 51.7687Z" fill="white"/>
<path d="M83.1675 52.3627H82.3097V55.9133H83.1675V52.3627Z" fill="white"/>
<path d="M87.1731 55.4147C87.3266 55.237 87.4352 55.0329 87.4987 54.8022H86.633C86.5668 54.9507 86.4662 55.0673 86.3338 55.1575C86.2015 55.245 86.0373 55.2901 85.8414 55.2901C85.6614 55.2901 85.4946 55.2476 85.349 55.1654C85.2007 55.0832 85.0842 54.9613 84.9995 54.8075C84.928 54.6775 84.8883 54.5211 84.8751 54.3461H87.594C87.5993 54.2798 87.602 54.2161 87.6046 54.1605C87.6046 54.1021 87.6073 54.0517 87.6073 54.004C87.6073 53.6805 87.5331 53.3888 87.3849 53.1316C87.2366 52.8744 87.0328 52.6676 86.7707 52.5111C86.5086 52.3573 86.2015 52.2778 85.8493 52.2778C85.4972 52.2778 85.169 52.3573 84.8963 52.5164C84.6209 52.6755 84.4091 52.8983 84.2556 53.1793C84.102 53.4604 84.0279 53.7866 84.0279 54.1605C84.0279 54.5343 84.1047 54.8499 84.2609 55.123C84.4144 55.3988 84.6289 55.6136 84.9042 55.7674C85.1769 55.9212 85.4946 56.0007 85.852 56.0007C86.1326 56.0007 86.3868 55.9477 86.6092 55.8443C86.8342 55.7382 87.0222 55.5977 87.1784 55.4174L87.1731 55.4147ZM84.9995 53.4472C85.0869 53.2934 85.206 53.174 85.3569 53.0971C85.5078 53.0176 85.6693 52.9778 85.8467 52.9778C86.0956 52.9778 86.3021 53.0494 86.4688 53.1953C86.6356 53.3411 86.7257 53.54 86.7415 53.7919H84.8883C84.9095 53.6593 84.9439 53.5426 85.0022 53.4445L84.9995 53.4472Z" fill="white"/>
<path d="M89.2434 50.7584H88.3856V55.9132H89.2434V50.7584Z" fill="white"/>
<path d="M91.0437 54.1154L92.5157 55.9132H93.5879L91.8856 53.9828L93.3602 52.3626H92.3383L91.0437 53.8157V50.7584H90.1859V55.9132H91.0437V54.1154Z" fill="white"/>
<path d="M95.0546 52.3627H94.1968V55.9133H95.0546V52.3627Z" fill="white"/>
<path d="M94.631 51.7687C94.7872 51.7687 94.9169 51.721 95.0202 51.6228C95.1234 51.5247 95.1737 51.4054 95.1737 51.2622C95.1737 51.119 95.1234 50.9944 95.0202 50.9016C94.9169 50.8088 94.7872 50.761 94.631 50.761C94.4748 50.761 94.3371 50.8088 94.2392 50.9016C94.1386 50.9944 94.0883 51.1164 94.0883 51.2622C94.0883 51.4081 94.1386 51.5247 94.2392 51.6228C94.3398 51.721 94.4695 51.7687 94.631 51.7687Z" fill="white"/>
<path d="M75.1324 63.9319H75.9902V61.7628H77.899V61.0813H75.9902V59.615H78.3279V58.9202H75.1324V63.9319Z" fill="white"/>
<path d="M81.4598 60.5272C81.1871 60.3734 80.88 60.2938 80.5385 60.2938C80.197 60.2938 79.8952 60.3707 79.6198 60.5272C79.3445 60.6836 79.1301 60.9011 78.9686 61.1821C78.8097 61.4632 78.7303 61.7894 78.7303 62.1553C78.7303 62.5212 78.8097 62.8474 78.9659 63.1258C79.1221 63.4042 79.3392 63.6243 79.6119 63.7808C79.8846 63.9372 80.1917 64.0168 80.5306 64.0168C80.8694 64.0168 81.1818 63.9372 81.4572 63.7808C81.7299 63.6243 81.947 63.4042 82.1085 63.1258C82.2673 62.8474 82.3467 62.5239 82.3467 62.1553C82.3467 61.7867 82.2673 61.4579 82.1085 61.1795C81.9496 60.9011 81.7325 60.6836 81.4625 60.5272H81.4598ZM81.338 62.7784C81.2533 62.9455 81.1395 63.0701 80.9992 63.155C80.8588 63.2372 80.7026 63.2796 80.5306 63.2796C80.3691 63.2796 80.2182 63.2372 80.0778 63.155C79.9375 63.0728 79.8237 62.9455 79.7337 62.7784C79.6437 62.6114 79.6013 62.4046 79.6013 62.1553C79.6013 61.906 79.6463 61.6992 79.7337 61.5322C79.821 61.3651 79.9375 61.2405 80.0805 61.1556C80.2235 61.0734 80.377 61.031 80.5385 61.031C80.7 61.031 80.8588 61.0734 80.9992 61.1556C81.1395 61.2405 81.2533 61.3651 81.338 61.5322C81.4228 61.6992 81.4678 61.906 81.4678 62.1553C81.4678 62.4046 81.4254 62.6114 81.338 62.7784Z" fill="white"/>
<path d="M84.3244 60.6491C84.2 60.7605 84.0967 60.8958 84.0093 61.0549L83.9299 60.3813H83.1648V63.9319H84.0226V62.2773C84.0226 62.0731 84.0491 61.8981 84.102 61.7575C84.1549 61.617 84.2291 61.5056 84.3244 61.4234C84.4197 61.3412 84.5309 61.2829 84.6606 61.2484C84.7903 61.214 84.9307 61.1954 85.0816 61.1954H85.3172V60.2938C85.1133 60.2938 84.9254 60.3256 84.7586 60.3866C84.5918 60.4476 84.4462 60.5351 84.3217 60.6491H84.3244Z" fill="white"/>
<path d="M91.0622 60.4768C90.8504 60.3548 90.5909 60.2938 90.2865 60.2938C90.035 60.2938 89.7993 60.3522 89.5822 60.4662C89.3651 60.5802 89.1904 60.7393 89.058 60.9382C88.9866 60.795 88.8939 60.6757 88.7801 60.5802C88.6662 60.4847 88.5338 60.4131 88.3882 60.3654C88.24 60.3177 88.0758 60.2938 87.8958 60.2938C87.6469 60.2938 87.4299 60.3442 87.2419 60.4476C87.0539 60.551 86.903 60.6889 86.7892 60.8666L86.7177 60.3787H85.9605V63.9293H86.8183V62.097C86.8183 61.8689 86.8527 61.6727 86.9242 61.5136C86.9957 61.3545 87.0963 61.2299 87.2233 61.145C87.3531 61.0602 87.496 61.0151 87.6602 61.0151C87.9117 61.0151 88.0997 61.0999 88.2241 61.2696C88.3485 61.4393 88.4094 61.6806 88.4094 61.9962V63.9293H89.2672V62.097C89.2672 61.8689 89.3016 61.6727 89.3731 61.5136C89.4446 61.3545 89.5452 61.2299 89.6723 61.145C89.802 61.0602 89.9476 61.0151 90.1144 61.0151C90.3659 61.0151 90.5539 61.0999 90.6783 61.2696C90.8027 61.4393 90.8636 61.6806 90.8636 61.9962V63.9293H91.7135V61.9113C91.7135 61.5587 91.6579 61.2617 91.5467 61.0204C91.4355 60.7791 91.2713 60.5988 91.0595 60.4768H91.0622Z" fill="white"/>
<path d="M95.0492 60.4688C94.8083 60.3522 94.5224 60.2938 94.1888 60.2938C93.9029 60.2938 93.6408 60.3442 93.4025 60.4476C93.1642 60.551 92.971 60.6942 92.8227 60.8798C92.6745 61.0655 92.5897 61.2882 92.5659 61.5454H93.4105C93.4396 61.3651 93.5269 61.2272 93.6726 61.1344C93.8182 61.0416 93.9876 60.9939 94.1835 60.9939C94.3503 60.9939 94.4906 61.0257 94.6018 61.0867C94.713 61.1477 94.7977 61.2405 94.8507 61.3624C94.9063 61.4844 94.9327 61.6382 94.9327 61.8238H94.0247C93.6858 61.8238 93.4025 61.8716 93.1748 61.9644C92.9472 62.0572 92.7724 62.1871 92.6559 62.3515C92.5394 62.5159 92.4812 62.7095 92.4812 62.9349C92.4812 63.1311 92.5288 63.3114 92.6242 63.4758C92.7195 63.6402 92.8651 63.7728 93.061 63.8683C93.2569 63.9664 93.5031 64.0141 93.8049 64.0141C93.9585 64.0141 94.0935 63.9982 94.2153 63.9637C94.3371 63.9293 94.4456 63.8842 94.5409 63.8232C94.6362 63.7622 94.721 63.6933 94.7951 63.6164C94.8692 63.5395 94.9301 63.4493 94.9778 63.3539L95.0625 63.9266H95.7905V61.7443C95.7905 61.4393 95.727 61.1795 95.5999 60.9647C95.4728 60.7499 95.2902 60.5855 95.0492 60.4662V60.4688ZM94.9116 62.386C94.901 62.5106 94.8772 62.6299 94.8322 62.744C94.7898 62.858 94.7289 62.9614 94.6495 63.0516C94.5701 63.1417 94.4774 63.2133 94.3662 63.2637C94.2576 63.3141 94.1332 63.3379 93.9956 63.3379C93.8658 63.3379 93.7573 63.3194 93.6673 63.2849C93.5772 63.2504 93.5058 63.1974 93.4555 63.1285C93.4052 63.0595 93.3813 62.9747 93.3813 62.8739C93.3813 62.7731 93.4052 62.6936 93.4555 62.6193C93.5058 62.5451 93.5852 62.4868 93.6937 62.4443C93.8023 62.4019 93.9426 62.3807 94.1147 62.3807H94.9089V62.3886L94.9116 62.386Z" fill="white"/>
<path d="M98.7981 61.0973V60.3813H97.8265V59.4506H97.0693L96.9687 60.3813H96.3624V61.0973H96.9687V62.7227C96.9687 63.0224 97.0163 63.261 97.1143 63.4387C97.2123 63.6163 97.3499 63.741 97.5326 63.8179C97.7126 63.8948 97.9244 63.9319 98.1627 63.9319H98.769V63.2027H98.3401C98.1495 63.2027 98.0171 63.1682 97.9403 63.0993C97.8635 63.0303 97.8265 62.9057 97.8265 62.7227V61.0973H98.7981Z" fill="white"/>
</g>
<defs>
<clipPath id="clip0_58_38">
<rect width="98.7981" height="75" fill="white"/>
</clipPath>
</defs>
</svg>
