<svg width="37" height="36" viewBox="0 0 37 36" fill="none" xmlns="http://www.w3.org/2000/svg">
<rect x="1" y="0.5" width="35" height="35" rx="17.5" stroke="white"/>
<path d="M26 13.5C26 11.4285 25.16 9.5535 23.804 8.1975C22.4465 6.84 20.5715 6 18.5 6C16.4285 6 14.5535 6.84 13.196 8.1975C11.84 9.5535 11 11.4285 11 13.5C11 15.5715 11.84 17.4465 13.196 18.8025C14.5535 20.16 16.4285 21 18.5 21C20.5715 21 22.4465 20.16 23.804 18.8025C24.5013 18.1069 25.0542 17.2803 25.4311 16.3704C25.808 15.4604 26.0013 14.4849 26 13.5ZM9.5 28.5C9.5 30 12.875 31.5 18.5 31.5C23.777 31.5 27.5 30 27.5 28.5C27.5 25.5 23.969 22.5 18.5 22.5C12.875 22.5 9.5 25.5 9.5 28.5Z" fill="white"/>
</svg>
